<?xml version="1.0" standalone="no"?>
<!DOCTYPE svg PUBLIC "-//W3C//DTD SVG 20010904//EN"
 "http://www.w3.org/TR/2001/REC-SVG-20010904/DTD/svg10.dtd">
<svg version="1.0" xmlns="http://www.w3.org/2000/svg"
 width="928.000000pt" height="144.000000pt" viewBox="0 0 928.000000 144.000000"
 preserveAspectRatio="xMidYMid meet">

<g transform="translate(0.000000,144.000000) scale(0.100000,-0.100000)"
fill="#000000" stroke="none">
<path d="M1027 1389 c-16 -9 -38 -52 -108 -208 -13 -30 -23 -59 -22 -63 4 -11
-10 -10 -112 9 -97 19 -380 23 -588 8 l-108 -7 3 -497 c3 -459 4 -499 21 -524
10 -16 29 -32 43 -37 13 -6 145 -10 292 -10 298 -1 350 7 428 61 55 37 97 93
136 178 38 82 43 121 43 316 0 176 -16 268 -61 357 -22 44 -24 53 -13 86 6 20
15 42 19 47 5 6 18 35 30 65 12 30 27 69 34 85 30 71 37 104 26 125 -12 22
-35 25 -63 9z m-207 -339 c31 -8 37 -14 33 -30 -8 -29 -36 -41 -112 -48 -123
-11 -115 -13 -121 41 -4 26 -4 50 -1 53 8 8 157 -4 201 -16z m-300 -19 c5 -11
10 -35 10 -55 0 -32 -3 -35 -48 -50 -66 -22 -147 -79 -176 -124 -36 -55 -51
-141 -32 -185 29 -71 118 -95 215 -58 30 11 58 18 63 15 4 -3 8 -57 8 -119 0
-128 0 -128 -79 -141 -50 -8 -79 9 -118 67 -28 42 -57 49 -76 18 -17 -27 1
-68 52 -119 39 -39 57 -50 95 -55 46 -7 94 -3 127 10 13 5 18 -1 21 -25 3 -17
1 -33 -3 -36 -17 -10 -316 -2 -340 10 -22 10 -25 20 -31 101 -11 156 -7 729 5
742 5 4 113 13 269 22 18 0 31 -6 38 -18z m415 -110 c3 -5 7 -22 9 -38 2 -15
9 -66 16 -112 31 -205 -21 -442 -117 -533 -26 -25 -90 -58 -112 -58 -23 0 -41
34 -41 77 0 40 5 51 53 104 101 111 129 196 94 281 -22 53 -68 78 -143 78
l-61 0 -7 71 c-4 39 -4 75 1 79 4 4 59 10 121 12 95 4 117 8 140 26 31 24 38
26 47 13z m-401 -112 c3 -17 6 -54 6 -81 l0 -49 -52 -24 c-79 -37 -138 -32
-138 10 0 61 42 110 135 159 41 21 42 20 49 -15z m224 -191 c28 -28 1 -122
-52 -181 -27 -29 -45 -29 -44 1 1 9 -2 52 -7 94 l-7 77 33 10 c47 13 63 13 77
-1z"/>
<path d="M1200 1299 c-6 -11 -11 -35 -10 -52 3 -50 2 -51 -35 -18 -41 36 -69
30 -78 -14 -4 -23 1 -29 39 -48 24 -11 44 -23 44 -26 0 -4 -14 -15 -30 -26
-31 -20 -47 -55 -35 -74 10 -18 70 -13 88 7 10 10 17 24 17 30 0 7 6 12 14 12
10 0 12 -11 9 -44 -5 -38 -2 -46 17 -56 16 -9 29 -9 45 -2 20 9 23 17 20 56
-2 34 1 46 11 46 8 0 14 -4 14 -9 0 -14 38 -24 66 -17 48 12 15 76 -39 76 -36
0 -34 10 8 38 19 12 35 30 35 40 0 44 -56 56 -90 20 -24 -26 -30 -22 -34 24
-2 19 -6 40 -10 47 -12 19 -54 13 -66 -10z"/>
<path d="M8778 833 c-24 -43 -44 -81 -46 -85 -2 -5 20 -8 50 -8 53 0 53 0 143
85 l90 84 -97 1 -97 0 -43 -77z"/>
<path d="M1450 475 l0 -425 130 0 130 0 0 425 0 425 -130 0 -130 0 0 -425z"/>
<path d="M5420 475 l0 -425 120 0 120 0 0 425 0 425 -120 0 -120 0 0 -425z"/>
<path d="M6578 591 l-3 -309 -24 -26 c-24 -26 -61 -33 -96 -20 -23 9 -45 57
-45 98 l0 34 -42 -5 c-24 -3 -79 -11 -123 -17 l-80 -12 2 -41 c4 -104 87 -210
185 -237 213 -59 392 -1 460 148 22 49 23 61 26 374 l3 322 -130 0 -130 0 -3
-309z"/>
<path d="M2067 670 c-67 -12 -133 -46 -159 -82 -22 -32 -35 -109 -24 -152 10
-40 63 -93 109 -111 23 -8 89 -24 146 -35 111 -21 151 -39 151 -69 0 -34 -38
-56 -97 -56 -51 0 -58 3 -87 36 l-31 36 -113 -10 c-127 -11 -128 -12 -74 -91
38 -56 99 -84 206 -96 146 -17 283 10 350 69 31 27 56 88 56 137 0 117 -80
176 -270 199 -129 15 -168 41 -131 86 14 18 28 22 66 22 41 0 52 -4 74 -29
l27 -30 104 10 c58 5 106 10 108 11 2 2 -6 21 -17 43 -23 45 -69 83 -120 101
-46 15 -214 22 -274 11z"/>
<path d="M2985 669 c-22 -5 -64 -27 -92 -49 l-53 -40 0 40 0 40 -110 0 -110 0
0 -305 0 -305 119 0 120 0 3 194 c3 177 5 196 23 216 44 49 110 46 134 -6 7
-16 11 -95 11 -214 l0 -190 115 0 115 0 0 143 c0 188 7 241 36 272 30 33 92
35 120 4 17 -19 19 -41 22 -220 l3 -199 115 0 114 0 0 221 c0 125 -5 239 -11
263 -17 67 -60 113 -126 132 -93 27 -173 8 -248 -57 l-35 -31 -39 39 c-54 57
-129 74 -226 52z"/>
<path d="M4024 670 c-79 -12 -119 -28 -157 -65 -31 -31 -66 -100 -55 -111 2
-2 51 -9 107 -15 l103 -12 21 26 c30 35 58 47 111 47 52 0 89 -27 84 -62 -4
-26 -42 -40 -198 -74 -190 -41 -239 -77 -248 -178 -4 -46 0 -62 22 -100 37
-63 94 -89 194 -89 95 1 147 14 200 53 43 31 45 31 56 -13 l6 -27 111 0 c111
0 111 0 104 22 -5 13 -11 117 -14 233 -6 193 -8 214 -29 258 -33 66 -85 95
-193 107 -94 11 -150 11 -225 0z m216 -365 c0 -64 -24 -104 -77 -127 -59 -26
-110 -17 -132 24 -14 25 -14 29 5 55 16 21 43 35 105 55 46 14 87 27 92 27 4
1 7 -15 7 -34z"/>
<path d="M4843 670 c-101 -21 -181 -79 -226 -163 -19 -36 -22 -57 -22 -152 0
-94 3 -116 22 -151 55 -103 125 -148 250 -164 92 -12 214 1 276 28 39 18 137
110 137 130 0 5 -51 14 -112 19 -112 10 -113 9 -139 -14 -70 -64 -199 -19
-199 69 l0 28 235 0 235 0 0 40 c0 54 -19 138 -41 181 -27 54 -103 117 -163
134 -63 19 -198 27 -253 15z m158 -146 c17 -8 37 -30 45 -49 27 -65 27 -65
-105 -65 l-120 0 9 31 c26 89 95 123 171 83z"/>
<path d="M7210 670 c-105 -22 -183 -81 -232 -173 -20 -36 -23 -57 -23 -142 0
-92 2 -104 30 -154 61 -111 169 -165 325 -163 115 1 187 28 256 96 60 61 87
128 86 220 0 192 -118 308 -325 321 -40 2 -92 0 -117 -5z m151 -173 c53 -35
74 -129 49 -218 -28 -101 -158 -118 -207 -26 -24 44 -24 160 0 205 18 34 64
61 103 62 12 0 36 -10 55 -23z"/>
<path d="M7955 670 c-65 -10 -94 -22 -133 -55 -43 -36 -62 -75 -62 -124 0 -70
33 -126 91 -156 14 -8 84 -26 155 -40 141 -30 171 -46 160 -88 -8 -32 -54 -51
-107 -44 -41 5 -89 40 -89 64 0 13 -11 13 -183 -6 l-58 -6 28 -54 c22 -41 40
-60 78 -82 97 -54 327 -59 431 -8 110 53 152 172 93 268 -35 58 -90 82 -252
106 -55 9 -107 20 -118 26 -21 11 -25 51 -6 66 40 32 131 18 149 -23 7 -15 17
-23 27 -20 9 3 58 8 109 12 65 5 92 10 92 20 0 20 -63 97 -96 116 -54 32 -199
45 -309 28z"/>
<path d="M8734 670 c-111 -23 -180 -75 -225 -166 -28 -57 -32 -74 -32 -149 0
-75 4 -92 32 -149 61 -125 147 -169 326 -169 144 0 201 19 276 92 32 31 59 62
59 68 0 6 -46 14 -112 20 -112 10 -113 10 -140 -15 -32 -29 -101 -39 -137 -20
-30 16 -57 54 -65 91 l-6 27 241 0 242 0 -6 68 c-10 105 -33 160 -92 219 -39
38 -66 55 -106 67 -65 20 -199 28 -255 16z m150 -142 c31 -13 51 -42 60 -86
l8 -32 -121 0 -121 0 6 28 c18 81 97 123 168 90z"/>
</g>
</svg>
